<svg width="514" height="108" viewBox="0 0 514 108" fill="none" xmlns="http://www.w3.org/2000/svg">
<g filter="url(#filter0_dn_193_1464)">
<path d="M317.238 14.6796V50.2041H312.159V34.9935H291.821V50.2041H286.742V14.6796H291.821V29.915H312.159V14.6796H317.238ZM356.825 45.1256C356.825 45.8193 356.693 46.4799 356.429 47.1075C356.165 47.7185 355.801 48.2553 355.339 48.7177C354.876 49.1802 354.331 49.5435 353.704 49.8077C353.093 50.072 352.44 50.2041 351.747 50.2041H331.458C330.764 50.2041 330.103 50.072 329.476 49.8077C328.865 49.5435 328.328 49.1802 327.866 48.7177C327.403 48.2553 327.04 47.7185 326.776 47.1075C326.511 46.4799 326.379 45.8193 326.379 45.1256V19.7581C326.379 19.0644 326.511 18.4121 326.776 17.801C327.04 17.1734 327.403 16.6367 327.866 16.1908C328.328 15.7284 328.865 15.365 329.476 15.1008C330.103 14.82 330.764 14.6796 331.458 14.6796H351.747C352.44 14.6796 353.093 14.82 353.704 15.1008C354.331 15.365 354.876 15.7284 355.339 16.1908C355.801 16.6367 356.165 17.1734 356.429 17.801C356.693 18.4121 356.825 19.0644 356.825 19.7581V45.1256ZM331.458 19.7581V45.1256H351.747V19.7581H331.458ZM394.034 27.3634C394.034 32.318 391.92 35.1421 387.692 35.8358L394.381 50.2041H388.758L382.168 36.0092H371.045V50.2041H365.966V14.6796H385.413C391.161 14.6796 394.034 17.5616 394.034 23.3254V27.3634ZM371.045 30.9307H385.141C386.495 30.9307 387.469 30.6334 388.064 30.0389C388.658 29.4443 388.956 28.4699 388.956 27.1157V23.5731C388.956 22.2189 388.658 21.2445 388.064 20.6499C387.469 20.0554 386.495 19.7581 385.141 19.7581H371.045V30.9307ZM430.599 27.3634C430.599 32.318 428.485 35.1421 424.257 35.8358L430.946 50.2041H425.322L418.733 36.0092H407.61V50.2041H402.531V14.6796H421.978C427.725 14.6796 430.599 17.5616 430.599 23.3254V27.3634ZM407.61 30.9307H421.706C423.06 30.9307 424.034 30.6334 424.629 30.0389C425.223 29.4443 425.521 28.4699 425.521 27.1157V23.5731C425.521 22.2189 425.223 21.2445 424.629 20.6499C424.034 20.0554 423.06 19.7581 421.706 19.7581H407.61V30.9307ZM469.542 45.1256C469.542 45.8193 469.41 46.4799 469.146 47.1075C468.882 47.7185 468.518 48.2553 468.056 48.7177C467.593 49.1802 467.048 49.5435 466.421 49.8077C465.81 50.072 465.157 50.2041 464.464 50.2041H444.175C443.481 50.2041 442.82 50.072 442.193 49.8077C441.582 49.5435 441.045 49.1802 440.583 48.7177C440.12 48.2553 439.757 47.7185 439.493 47.1075C439.228 46.4799 439.096 45.8193 439.096 45.1256V19.7581C439.096 19.0644 439.228 18.4121 439.493 17.801C439.757 17.1734 440.12 16.6367 440.583 16.1908C441.045 15.7284 441.582 15.365 442.193 15.1008C442.82 14.82 443.481 14.6796 444.175 14.6796H464.464C465.157 14.6796 465.81 14.82 466.421 15.1008C467.048 15.365 467.593 15.7284 468.056 16.1908C468.518 16.6367 468.882 17.1734 469.146 17.801C469.41 18.4121 469.542 19.0644 469.542 19.7581V45.1256ZM444.175 19.7581V45.1256H464.464V19.7581H444.175ZM506.751 27.3634C506.751 32.318 504.637 35.1421 500.409 35.8358L507.098 50.2041H501.475L494.885 36.0092H483.762V50.2041H478.684V14.6796H498.13C503.878 14.6796 506.751 17.5616 506.751 23.3254V27.3634ZM483.762 30.9307H497.858C499.212 30.9307 500.186 30.6334 500.781 30.0389C501.376 29.4443 501.673 28.4699 501.673 27.1157V23.5731C501.673 22.2189 501.376 21.2445 500.781 20.6499C500.186 20.0554 499.212 19.7581 497.858 19.7581H483.762V30.9307ZM317.263 55.6796V91.2041H312.184V75.9935H291.846V91.2041H286.767V55.6796H291.846V70.915H312.184V55.6796H317.263ZM356.85 86.1256C356.85 86.8193 356.718 87.4799 356.454 88.1075C356.189 88.7185 355.826 89.2553 355.364 89.7177C354.901 90.1802 354.356 90.5435 353.729 90.8077C353.117 91.072 352.465 91.2041 351.771 91.2041H331.482C330.789 91.2041 330.128 91.072 329.501 90.8077C328.889 90.5435 328.353 90.1802 327.89 89.7177C327.428 89.2553 327.065 88.7185 326.8 88.1075C326.536 87.4799 326.404 86.8193 326.404 86.1256V60.7581C326.404 60.0644 326.536 59.4121 326.8 58.801C327.065 58.1734 327.428 57.6367 327.89 57.1908C328.353 56.7284 328.889 56.365 329.501 56.1008C330.128 55.82 330.789 55.6796 331.482 55.6796H351.771C352.465 55.6796 353.117 55.82 353.729 56.1008C354.356 56.365 354.901 56.7284 355.364 57.1908C355.826 57.6367 356.189 58.1734 356.454 58.801C356.718 59.4121 356.85 60.0644 356.85 60.7581V86.1256ZM331.482 60.7581V86.1256H351.771V60.7581H331.482ZM362.944 55.6796H391.359V60.7581H379.691V91.2041H374.612V60.7581H362.944V55.6796ZM402.531 55.6796V86.1256H420.789V91.2041H397.453V55.6796H402.531ZM431.962 55.6796V91.2041H426.883V55.6796H431.962ZM446.181 91.2041H441.103V55.6796H446.181L467.536 83.2272V55.6796H472.614V91.2041H467.536L446.181 63.6565V91.2041ZM481.731 55.6796H507.618V60.7581H486.809V70.915H504.571V75.9935H486.809V86.1256H507.618V91.2041H481.731V55.6796Z" fill="#EC1E1E"/>
</g>
<g filter="url(#filter1_g_193_1464)">
<path d="M317.238 14.6796V50.2041H312.159V34.9935H291.821V50.2041H286.742V14.6796H291.821V29.915H312.159V14.6796H317.238ZM356.825 45.1256C356.825 45.8193 356.693 46.4799 356.429 47.1075C356.165 47.7185 355.801 48.2553 355.339 48.7177C354.876 49.1802 354.331 49.5435 353.704 49.8077C353.093 50.072 352.44 50.2041 351.747 50.2041H331.458C330.764 50.2041 330.103 50.072 329.476 49.8077C328.865 49.5435 328.328 49.1802 327.866 48.7177C327.403 48.2553 327.04 47.7185 326.776 47.1075C326.511 46.4799 326.379 45.8193 326.379 45.1256V19.7581C326.379 19.0644 326.511 18.4121 326.776 17.801C327.04 17.1734 327.403 16.6367 327.866 16.1908C328.328 15.7284 328.865 15.365 329.476 15.1008C330.103 14.82 330.764 14.6796 331.458 14.6796H351.747C352.44 14.6796 353.093 14.82 353.704 15.1008C354.331 15.365 354.876 15.7284 355.339 16.1908C355.801 16.6367 356.165 17.1734 356.429 17.801C356.693 18.4121 356.825 19.0644 356.825 19.7581V45.1256ZM331.458 19.7581V45.1256H351.747V19.7581H331.458ZM394.034 27.3634C394.034 32.318 391.92 35.1421 387.692 35.8358L394.381 50.2041H388.758L382.168 36.0092H371.045V50.2041H365.966V14.6796H385.413C391.161 14.6796 394.034 17.5616 394.034 23.3254V27.3634ZM371.045 30.9307H385.141C386.495 30.9307 387.469 30.6334 388.064 30.0389C388.658 29.4443 388.956 28.4699 388.956 27.1157V23.5731C388.956 22.2189 388.658 21.2445 388.064 20.6499C387.469 20.0554 386.495 19.7581 385.141 19.7581H371.045V30.9307ZM430.599 27.3634C430.599 32.318 428.485 35.1421 424.257 35.8358L430.946 50.2041H425.322L418.733 36.0092H407.61V50.2041H402.531V14.6796H421.978C427.725 14.6796 430.599 17.5616 430.599 23.3254V27.3634ZM407.61 30.9307H421.706C423.06 30.9307 424.034 30.6334 424.629 30.0389C425.223 29.4443 425.521 28.4699 425.521 27.1157V23.5731C425.521 22.2189 425.223 21.2445 424.629 20.6499C424.034 20.0554 423.06 19.7581 421.706 19.7581H407.61V30.9307ZM469.542 45.1256C469.542 45.8193 469.41 46.4799 469.146 47.1075C468.882 47.7185 468.518 48.2553 468.056 48.7177C467.593 49.1802 467.048 49.5435 466.421 49.8077C465.81 50.072 465.157 50.2041 464.464 50.2041H444.175C443.481 50.2041 442.82 50.072 442.193 49.8077C441.582 49.5435 441.045 49.1802 440.583 48.7177C440.12 48.2553 439.757 47.7185 439.493 47.1075C439.228 46.4799 439.096 45.8193 439.096 45.1256V19.7581C439.096 19.0644 439.228 18.4121 439.493 17.801C439.757 17.1734 440.12 16.6367 440.583 16.1908C441.045 15.7284 441.582 15.365 442.193 15.1008C442.82 14.82 443.481 14.6796 444.175 14.6796H464.464C465.157 14.6796 465.81 14.82 466.421 15.1008C467.048 15.365 467.593 15.7284 468.056 16.1908C468.518 16.6367 468.882 17.1734 469.146 17.801C469.41 18.4121 469.542 19.0644 469.542 19.7581V45.1256ZM444.175 19.7581V45.1256H464.464V19.7581H444.175ZM506.751 27.3634C506.751 32.318 504.637 35.1421 500.409 35.8358L507.098 50.2041H501.475L494.885 36.0092H483.762V50.2041H478.684V14.6796H498.13C503.878 14.6796 506.751 17.5616 506.751 23.3254V27.3634ZM483.762 30.9307H497.858C499.212 30.9307 500.186 30.6334 500.781 30.0389C501.376 29.4443 501.673 28.4699 501.673 27.1157V23.5731C501.673 22.2189 501.376 21.2445 500.781 20.6499C500.186 20.0554 499.212 19.7581 497.858 19.7581H483.762V30.9307ZM317.263 55.6796V91.2041H312.184V75.9935H291.846V91.2041H286.767V55.6796H291.846V70.915H312.184V55.6796H317.263ZM356.85 86.1256C356.85 86.8193 356.718 87.4799 356.454 88.1075C356.189 88.7185 355.826 89.2553 355.364 89.7177C354.901 90.1802 354.356 90.5435 353.729 90.8077C353.117 91.072 352.465 91.2041 351.771 91.2041H331.482C330.789 91.2041 330.128 91.072 329.501 90.8077C328.889 90.5435 328.353 90.1802 327.89 89.7177C327.428 89.2553 327.065 88.7185 326.8 88.1075C326.536 87.4799 326.404 86.8193 326.404 86.1256V60.7581C326.404 60.0644 326.536 59.4121 326.8 58.801C327.065 58.1734 327.428 57.6367 327.89 57.1908C328.353 56.7284 328.889 56.365 329.501 56.1008C330.128 55.82 330.789 55.6796 331.482 55.6796H351.771C352.465 55.6796 353.117 55.82 353.729 56.1008C354.356 56.365 354.901 56.7284 355.364 57.1908C355.826 57.6367 356.189 58.1734 356.454 58.801C356.718 59.4121 356.85 60.0644 356.85 60.7581V86.1256ZM331.482 60.7581V86.1256H351.771V60.7581H331.482ZM362.944 55.6796H391.359V60.7581H379.691V91.2041H374.612V60.7581H362.944V55.6796ZM402.531 55.6796V86.1256H420.789V91.2041H397.453V55.6796H402.531ZM431.962 55.6796V91.2041H426.883V55.6796H431.962ZM446.181 91.2041H441.103V55.6796H446.181L467.536 83.2272V55.6796H472.614V91.2041H467.536L446.181 63.6565V91.2041ZM481.731 55.6796H507.618V60.7581H486.809V70.915H504.571V75.9935H486.809V86.1256H507.618V91.2041H481.731V55.6796Z" fill="#EC1E1E"/>
</g>
<mask id="mask0_193_1464" style="mask-type:alpha" maskUnits="userSpaceOnUse" x="0" y="0" width="280" height="108">
<path d="M0.585938 0.0820312H230.598V107.204H0.585938V0.0820312Z" fill="#D9D9D9"/>
<path d="M0.585938 0.0820312H279.518V69.0394H0.585938V0.0820312Z" fill="#D9D9D9"/>
</mask>
<g mask="url(#mask0_193_1464)">
<path d="M24.02 25.0416C24.02 23.5342 24.3071 22.1166 24.8814 20.7886C25.4556 19.4248 26.2452 18.2584 27.2501 17.2894C28.255 16.2845 29.4214 15.4949 30.7493 14.9207C32.1131 14.3106 33.5487 14.0055 35.0561 14.0055H70.3177C71.825 14.0055 73.2427 14.3106 74.5706 14.9207C75.9344 15.4949 77.1187 16.2845 78.1236 17.2894C79.1286 18.2584 79.9181 19.4248 80.4924 20.7886C81.0666 22.1166 81.3537 23.5342 81.3537 25.0416V35.0009H70.3177V25.0416H35.0561V47.1137H70.3177C71.825 47.1137 73.2427 47.4008 74.5706 47.975C75.9344 48.5493 77.1187 49.3388 78.1236 50.3438C79.1286 51.3487 79.9181 52.533 80.4924 53.8968C81.0666 55.2247 81.3537 56.6424 81.3537 58.1497V80.168C81.3537 81.6754 81.0666 83.111 80.4924 84.4748C79.9181 85.8027 79.1286 86.9691 78.1236 87.974C77.1187 88.9789 75.9344 89.7685 74.5706 90.3428C73.2427 90.917 71.825 91.2041 70.3177 91.2041H35.0561C33.5487 91.2041 32.1131 90.917 30.7493 90.3428C29.4214 89.7685 28.255 88.9789 27.2501 87.974C26.2452 86.9691 25.4556 85.8027 24.8814 84.4748C24.3071 83.111 24.02 81.6754 24.02 80.168V25.0416ZM35.0561 58.1497V80.168H70.3177V58.1497H35.0561ZM101.219 25.0416C101.219 23.5342 101.506 22.1166 102.08 20.7886C102.654 19.4248 103.444 18.2584 104.449 17.2894C105.454 16.2845 106.62 15.4949 107.948 14.9207C109.312 14.3106 110.747 14.0055 112.255 14.0055H147.516C149.024 14.0055 150.441 14.3106 151.769 14.9207C153.133 15.4949 154.317 16.2845 155.322 17.2894C156.327 18.2584 157.117 19.4248 157.691 20.7886C158.265 22.1166 158.552 23.5342 158.552 25.0416V35.0009H147.516V25.0416H112.255V47.1137H147.516C149.024 47.1137 150.441 47.4008 151.769 47.975C153.133 48.5493 154.317 49.3388 155.322 50.3438C156.327 51.3487 157.117 52.533 157.691 53.8968C158.265 55.2247 158.552 56.6424 158.552 58.1497V80.168C158.552 81.6754 158.265 83.111 157.691 84.4748C157.117 85.8027 156.327 86.9691 155.322 87.974C154.317 88.9789 153.133 89.7685 151.769 90.3428C150.441 90.917 149.024 91.2041 147.516 91.2041H112.255C110.747 91.2041 109.312 90.917 107.948 90.3428C106.62 89.7685 105.454 88.9789 104.449 87.974C103.444 86.9691 102.654 85.8027 102.08 84.4748C101.506 83.111 101.219 81.6754 101.219 80.168V25.0416ZM112.255 58.1497V80.168H147.516V58.1497H112.255ZM177.341 75.1076H193.437V91.2041H177.341V75.1076ZM212.225 25.0416C212.225 23.5342 212.512 22.1166 213.087 20.7886C213.661 19.4248 214.45 18.2584 215.455 17.2894C216.46 16.2845 217.627 15.4949 218.955 14.9207C220.318 14.3106 221.754 14.0055 223.261 14.0055H258.523C260.03 14.0055 261.448 14.3106 262.776 14.9207C264.14 15.4949 265.324 16.2845 266.329 17.2894C267.334 18.2584 268.123 19.4248 268.698 20.7886C269.272 22.1166 269.559 23.5342 269.559 25.0416V35.0009H258.523V25.0416H223.261V47.1137H258.523C260.03 47.1137 261.448 47.4008 262.776 47.975C264.14 48.5493 265.324 49.3388 266.329 50.3438C267.334 51.3487 268.123 52.533 268.698 53.8968C269.272 55.2247 269.559 56.6424 269.559 58.1497V80.168C269.559 81.6754 269.272 83.111 268.698 84.4748C268.123 85.8027 267.334 86.9691 266.329 87.974C265.324 88.9789 264.14 89.7685 262.776 90.3428C261.448 90.917 260.03 91.2041 258.523 91.2041H223.261C221.754 91.2041 220.318 90.917 218.955 90.3428C217.627 89.7685 216.46 88.9789 215.455 87.974C214.45 86.9691 213.661 85.8027 213.087 84.4748C212.512 83.111 212.225 81.6754 212.225 80.168V25.0416ZM223.261 58.1497V80.168H258.523V58.1497H223.261Z" fill="white"/>
</g>
<path d="M234.647 73.2532H247.728V75.8194H237.213V80.9518H246.189V83.518H237.213V91.2041H234.647V73.2532ZM259.815 91.2041L253.118 78.0476V91.2041H250.552V73.2532H253.356L260.191 86.7727L267.038 73.2532H269.83V91.2041H267.276V78.0476L260.579 91.2041H259.815Z" fill="white"/>
<defs>
<filter id="filter0_dn_193_1464" x="282.742" y="10.6797" width="228.876" height="84.5244" filterUnits="userSpaceOnUse" color-interpolation-filters="sRGB">
<feFlood flood-opacity="0" result="BackgroundImageFix"/>
<feColorMatrix in="SourceAlpha" type="matrix" values="0 0 0 0 0 0 0 0 0 0 0 0 0 0 0 0 0 0 127 0" result="hardAlpha"/>
<feOffset/>
<feGaussianBlur stdDeviation="2"/>
<feComposite in2="hardAlpha" operator="out"/>
<feColorMatrix type="matrix" values="0 0 0 0 0.926495 0 0 0 0 0.119483 0 0 0 0 0.119483 0 0 0 1 0"/>
<feBlend mode="normal" in2="BackgroundImageFix" result="effect1_dropShadow_193_1464"/>
<feBlend mode="normal" in="SourceGraphic" in2="BackgroundImageFix" result="shape"/>
<feTurbulence type="fractalNoise" baseFrequency="2 2" stitchTiles="stitch" numOctaves="3" result="noise" seed="5101" />
<feComponentTransfer in="noise" result="coloredNoise1">
<feFuncR type="linear" slope="2" intercept="-0.5" />
<feFuncG type="linear" slope="2" intercept="-0.5" />
<feFuncB type="linear" slope="2" intercept="-0.5" />
<feFuncA type="discrete" tableValues="1 1 1 1 1 1 1 1 1 1 1 1 1 1 1 1 1 1 1 1 1 1 1 1 1 1 1 1 1 1 1 1 1 1 1 1 1 1 1 1 1 1 1 1 1 1 1 1 1 1 1 0 0 0 0 0 0 0 0 0 0 0 0 0 0 0 0 0 0 0 0 0 0 0 0 0 0 0 0 0 0 0 0 0 0 0 0 0 0 0 0 0 0 0 0 0 0 0 0 0 "/>
</feComponentTransfer>
<feComposite operator="in" in2="shape" in="coloredNoise1" result="noise1Clipped" />
<feComponentTransfer in="noise1Clipped" result="color1">
<feFuncA type="table" tableValues="0 0.22" />
</feComponentTransfer>
<feMerge result="effect2_noise_193_1464">
<feMergeNode in="shape" />
<feMergeNode in="color1" />
</feMerge>
<feBlend mode="normal" in="effect2_noise_193_1464" in2="effect1_dropShadow_193_1464" result="effect2_noise_193_1464"/>
</filter>
<filter id="filter1_g_193_1464" x="282.742" y="10.6797" width="228.876" height="84.5244" filterUnits="userSpaceOnUse" color-interpolation-filters="sRGB">
<feFlood flood-opacity="0" result="BackgroundImageFix"/>
<feBlend mode="normal" in="SourceGraphic" in2="BackgroundImageFix" result="shape"/>
<feTurbulence type="fractalNoise" baseFrequency="2 2" numOctaves="3" seed="5101" />
<feDisplacementMap in="shape" scale="8" xChannelSelector="R" yChannelSelector="G" result="displacedImage" width="100%" height="100%" />
<feMerge result="effect1_texture_193_1464">
<feMergeNode in="displacedImage"/>
</feMerge>
</filter>
</defs>
</svg>
